<?xml version="1.0" encoding="utf-8"?>
<svg version="1.1" xmlns="http://www.w3.org/2000/svg" xmlns:xlink="http://www.w3.org/1999/xlink" x="0px" y="0px"
	 viewBox="0 0 203 50" style="enable-background:new 0 0 203 50;" xml:space="preserve">
<style type="text/css">
	.st0{fill:#4D2B75;}
	.st1{fill:#FDDB5D;}
	.st2{fill:#7B6EB2;}
	.st3{fill:#FCB137;}
	.st4{fill:#F47922;}
</style>
<g id="Layer_1">
	<g>
		<path class="st0" d="M96.57,46.79V2.71h8.44l26.01,31.74h-4.09V2.71H137v44.08h-8.37l-26.07-31.74h4.09v31.74H96.57z"/>
	</g>
	<g>
		<path class="st0" d="M23.98,47.83c-3.48,0-6.71-0.57-9.67-1.7s-5.52-2.73-7.68-4.79c-2.16-2.06-3.84-4.47-5.04-7.24
			c-1.2-2.77-1.79-5.79-1.79-9.07s0.6-6.3,1.79-9.07c1.2-2.77,2.89-5.18,5.07-7.24c2.18-2.06,4.74-3.65,7.68-4.79
			c2.94-1.13,6.13-1.7,9.57-1.7c3.48,0,6.68,0.57,9.6,1.7c2.92,1.13,5.46,2.73,7.62,4.79c2.16,2.06,3.85,4.46,5.07,7.21
			c1.22,2.75,1.83,5.78,1.83,9.1c0,3.27-0.61,6.31-1.83,9.1c-1.22,2.79-2.91,5.21-5.07,7.24c-2.16,2.04-4.7,3.62-7.62,4.75
			C30.6,47.26,27.42,47.83,23.98,47.83z M23.92,39.14c1.97,0,3.79-0.34,5.45-1.01c1.66-0.67,3.12-1.64,4.38-2.9
			c1.26-1.26,2.24-2.75,2.93-4.47c0.69-1.72,1.04-3.63,1.04-5.73c0-2.1-0.35-4.01-1.04-5.73c-0.69-1.72-1.66-3.21-2.9-4.47
			c-1.24-1.26-2.7-2.22-4.38-2.9c-1.68-0.67-3.51-1.01-5.48-1.01s-3.79,0.34-5.45,1.01c-1.66,0.67-3.12,1.64-4.38,2.9
			s-2.24,2.75-2.93,4.47c-0.69,1.72-1.04,3.63-1.04,5.73c0,2.06,0.35,3.96,1.04,5.7c0.69,1.74,1.66,3.24,2.9,4.5
			c1.24,1.26,2.7,2.23,4.38,2.9C20.12,38.8,21.94,39.14,23.92,39.14z"/>
	</g>
	<path class="st1" d="M96.8,2.71l-4.36,7.54c-6.37,0.67-11.71,3.07-16.28,6.21l5.57-9.64l2.37-4.11H96.8z"/>
	<path class="st2" d="M66.01,25.53c-1.34,1.44-2.6,2.87-3.78,4.23c-1.19,1.37-2.31,2.66-3.37,3.82L49,16.52
		c1.65,0.18,3.17,0.52,4.59,0.98c0.38,0.12,0.76,0.25,1.12,0.39c0.21,0.08,0.42,0.16,0.62,0.25c0.15,0.06,0.29,0.12,0.43,0.18
		c0.81,0.35,1.59,0.74,2.33,1.16c0.51,0.29,1,0.59,1.48,0.9c0.66,0.43,1.29,0.87,1.92,1.34c0.31,0.23,0.62,0.47,0.92,0.71
		c0.31,0.24,0.6,0.48,0.9,0.73c0.89,0.74,1.76,1.51,2.61,2.28C65.95,25.48,65.98,25.5,66.01,25.53z"/>
	<path class="st0" d="M67.91,27.27c-0.63-0.57-1.26-1.15-1.9-1.73c-0.03-0.03-0.06-0.05-0.09-0.07c-0.85-0.78-1.72-1.54-2.61-2.28
		c-0.3-0.25-0.6-0.5-0.9-0.73c-0.31-0.25-0.61-0.48-0.92-0.71c-0.62-0.47-1.26-0.92-1.92-1.34c-0.48-0.32-0.97-0.62-1.48-0.9
		c-0.74-0.42-1.52-0.81-2.33-1.16c-0.14-0.07-0.29-0.12-0.43-0.18c-0.21-0.09-0.41-0.17-0.62-0.25c-0.37-0.14-0.73-0.26-1.12-0.39
		c-1.42-0.46-2.94-0.79-4.59-0.98L41.03,2.71h12.7l4.34,7.52l5.36,9.3l3.13,5.41L67.91,27.27z"/>
	<path class="st3" d="M92.45,10.25L78.45,34.49c-3.53-1.33-6.42-3.57-9.21-6.03l4.87-8.43l2.06-3.56
		C80.74,13.32,86.08,10.92,92.45,10.25z"/>
	<path class="st4" d="M78.46,34.5l-6.97,12.08c-1.14,1.97-3.99,1.97-5.13,0l-7.5-12.99c1.07-1.16,2.18-2.45,3.36-3.82
		c1.18-1.36,2.45-2.79,3.78-4.23c0.64,0.58,1.27,1.16,1.9,1.73l1.01,1.76l0.32-0.56C72.04,30.93,74.92,33.17,78.46,34.5z"/>
</g>
</svg>
